# xmcd CD database file
#
# Track frame offsets:
#	182
#	22192
#	38257
#	55065
#	72475
#	89615
#	110582
#	133830
#	152200
#	173872
#	188260
#
# Disc length: 2741 seconds
#
# Revision: 3
# Processed by: cddbd v1.5.1PL0 Copyright (c) Steve Scherf et al.
# Submitted via: CDex 1.51
#
DISCID=910ab30b
DTITLE=Carolyn Dawn Johnson - Room With A View
DYEAR=2001
DGENRE=Country
TTITLE0=Georgia
TTITLE1=Just Another Girl
TTITLE2=I'll Think Of You That Way
TTITLE3=Love Is Always Worth The Ache
TTITLE4=Complicated
TTITLE5=I Don't Want You To Go
TTITLE6=You AreYou Are
TTITLE7=Masterpiece
TTITLE8=Little Bit Of This, Little Bit Of That
TTITLE9=One Day Closer To You
TTITLE10=Room With A View
EXTD=YEAR: 2001
EXTT0=
EXTT1=
EXTT2=
EXTT3=
EXTT4=
EXTT5=
EXTT6=
EXTT7=
EXTT8=
EXTT9=
EXTT10=
PLAYORDER=
